<svg xmlns="http://www.w3.org/2000/svg" width="117.795" height="30" viewBox="0 0 117.795 30">
  <g id="logo-InDaaS" transform="translate(-192.558 -192.079)">
    <g id="组_1" data-name="组 1" transform="translate(232.865 198.623)">
      <path id="路径_1" data-name="路径 1" d="M232.462,198.874h2.822v17.182h-2.822Z" transform="translate(-232.462 -198.555)" fill="#b71d03"/>
      <path id="路径_2" data-name="路径 2" d="M244.337,203.419a4.52,4.52,0,0,1,3.411,1.349,5.116,5.116,0,0,1,1.3,3.706v7.535H246.4v-7.266a2.854,2.854,0,0,0-.737-2.111,2.718,2.718,0,0,0-2.011-.735,3.027,3.027,0,0,0-2.259.872,3.648,3.648,0,0,0-.86,2.662v6.579H237.88V203.737h2.652v1.571A4.178,4.178,0,0,1,244.337,203.419Z" transform="translate(-232.407 -198.509)" fill="#b71d03"/>
      <path id="路径_3" data-name="路径 3" d="M258.068,198.874a7.748,7.748,0,0,1,5.879,2.48,9.125,9.125,0,0,1,0,12.211,7.732,7.732,0,0,1-5.879,2.491h-6.748V198.874Zm0,14.482a5.139,5.139,0,0,0,3.965-1.669,6.593,6.593,0,0,0,0-8.457,5.157,5.157,0,0,0-3.965-1.657h-3.926v11.782Z" transform="translate(-232.272 -198.555)" fill="#615f5f"/>
      <path id="路径_4" data-name="路径 4" d="M303.215,216.378a7.533,7.533,0,0,1-4.21-1.129,5.934,5.934,0,0,1-2.418-3.093l2.431-1.423a4.113,4.113,0,0,0,4.27,2.9,3.844,3.844,0,0,0,2.394-.623,1.973,1.973,0,0,0,.8-1.628,1.789,1.789,0,0,0-.862-1.6,13.414,13.414,0,0,0-3.046-1.211q-1.2-.447-1.973-.732a7.654,7.654,0,0,1-1.619-.865,3.661,3.661,0,0,1-1.265-1.436,4.574,4.574,0,0,1-.417-2.012,4.445,4.445,0,0,1,1.621-3.62,5.931,5.931,0,0,1,3.9-1.338,6.467,6.467,0,0,1,3.607,1.007,6.589,6.589,0,0,1,2.382,2.774l-2.382,1.374a3.7,3.7,0,0,0-3.607-2.405,3.1,3.1,0,0,0-1.965.577,1.876,1.876,0,0,0-.736,1.559,1.721,1.721,0,0,0,.752,1.478,10.191,10.191,0,0,0,2.729,1.142l1.41.531q.447.17,1.285.484a4.335,4.335,0,0,1,1.251.665,9.387,9.387,0,0,1,.888.87,3,3,0,0,1,.671,1.193,5.462,5.462,0,0,1,.194,1.516,4.5,4.5,0,0,1-1.682,3.694A6.779,6.779,0,0,1,303.215,216.378Z" transform="translate(-231.814 -198.558)" fill="#615f5f"/>
      <path id="路径_5" data-name="路径 5" d="M278.027,203.742v.61a6.7,6.7,0,1,0,0,10.573V216h2.748v-12.26Zm-4.1,9.918a4.022,4.022,0,1,1,4.021-4.021A4.021,4.021,0,0,1,273.929,213.66Z" transform="translate(-232.111 -198.514)" fill="#615f5f"/>
      <path id="路径_6" data-name="路径 6" d="M292.489,203.742v.61a6.7,6.7,0,1,0,0,10.573V216h2.749v-12.26Zm-4.1,9.918a4.022,4.022,0,1,1,4.021-4.021A4.022,4.022,0,0,1,288.391,213.66Z" transform="translate(-231.965 -198.514)" fill="#615f5f"/>
    </g>
    <g id="组_4" data-name="组 4" transform="translate(192.558 192.079)">
      <g id="组_2" data-name="组 2">
        <path id="路径_7" data-name="路径 7" d="M201.193,196.624a4.1,4.1,0,0,1,4.091,4.091v4.091h-4.091a4.091,4.091,0,0,1,0-8.182m0-4.545a8.636,8.636,0,0,0,0,17.273h8.636v-8.636a8.636,8.636,0,0,0-8.636-8.636Z" transform="translate(-192.558 -192.079)" fill="#e7290f"/>
      </g>
      <g id="组_3" data-name="组 3" transform="translate(12.726 12.727)">
        <path id="路径_8" data-name="路径 8" d="M213.793,209.224a4.091,4.091,0,1,1-4.091,4.091v-4.091h4.091m0-4.545h-8.636v8.636a8.636,8.636,0,1,0,8.636-8.636Z" transform="translate(-205.157 -204.679)" fill="#949495"/>
      </g>
      <rect id="矩形_2" data-name="矩形 2" width="4.545" height="4.545" transform="translate(12.727 12.727)" fill="#890f00"/>
    </g>
  </g>
</svg>
